<?xml version="1.0" encoding="utf-8" standalone="no"?>
<!DOCTYPE svg PUBLIC "-//W3C//DTD SVG 1.1//EN"
  "http://www.w3.org/Graphics/SVG/1.1/DTD/svg11.dtd">
<svg height="345.6pt" version="1.1" viewBox="0 0 460.8 345.6" width="460.8pt" xmlns="http://www.w3.org/2000/svg" xmlns:xlink="http://www.w3.org/1999/xlink">
 <metadata>
  <rdf:RDF xmlns:cc="http://creativecommons.org/ns#" xmlns:dc="http://purl.org/dc/elements/1.1/" xmlns:rdf="http://www.w3.org/1999/02/22-rdf-syntax-ns#">
   <cc:Work>
    <dc:type rdf:resource="http://purl.org/dc/dcmitype/StillImage"/>
    <dc:date>2021-08-01T22:08:32.902163</dc:date>
    <dc:format>image/svg+xml</dc:format>
    <dc:creator>
     <cc:Agent>
      <dc:title>Matplotlib v3.4.2, https://matplotlib.org/</dc:title>
     </cc:Agent>
    </dc:creator>
   </cc:Work>
  </rdf:RDF>
 </metadata>
 <defs>
  <style type="text/css">*{stroke-linecap:butt;stroke-linejoin:round;}</style>
 </defs>
 <g id="figure_1">
  <g id="patch_1">
   <path d="M 0 345.6 
L 460.8 345.6 
L 460.8 0 
L 0 0 
z
" style="fill:#ffffff;"/>
  </g>
  <g id="axes_1">
   <g id="patch_2">
    <path d="M 57.6 307.584 
L 414.72 307.584 
L 414.72 41.472 
L 57.6 41.472 
z
" style="fill:#ffffff;"/>
   </g>
   <g id="matplotlib.axis_1">
    <g id="xtick_1">
     <g id="line2d_1">
      <path clip-path="url(#p21abbaa41b)" d="M 73.832727 307.584 
L 73.832727 41.472 
" style="fill:none;stroke:#b0b0b0;stroke-linecap:square;stroke-width:0.8;"/>
     </g>
     <g id="line2d_2">
      <defs>
       <path d="M 0 0 
L 0 3.5 
" id="m0d9ad30285" style="stroke:#000000;stroke-width:0.8;"/>
      </defs>
      <g>
       <use style="stroke:#000000;stroke-width:0.8;" x="73.832727" xlink:href="#m0d9ad30285" y="307.584"/>
      </g>
     </g>
     <g id="text_1">
      <!-- $\mathdefault{0}$ -->
      <g transform="translate(71.34206 321.502498)scale(0.1 -0.1)">
       <defs>
        <path d="M 2688 2025 
C 2688 2416 2682 3080 2413 3591 
C 2176 4039 1798 4198 1466 4198 
C 1158 4198 768 4058 525 3597 
C 269 3118 243 2524 243 2025 
C 243 1661 250 1106 448 619 
C 723 -39 1216 -128 1466 -128 
C 1760 -128 2208 -7 2470 600 
C 2662 1042 2688 1559 2688 2025 
z
M 1466 -26 
C 1056 -26 813 325 723 812 
C 653 1188 653 1738 653 2096 
C 653 2588 653 2997 736 3387 
C 858 3929 1216 4096 1466 4096 
C 1728 4096 2067 3923 2189 3400 
C 2272 3036 2278 2607 2278 2096 
C 2278 1680 2278 1169 2202 792 
C 2067 95 1690 -26 1466 -26 
z
" id="CMR17-30" transform="scale(0.015625)"/>
       </defs>
       <use transform="scale(0.996264)" xlink:href="#CMR17-30"/>
      </g>
     </g>
    </g>
    <g id="xtick_2">
     <g id="line2d_3">
      <path clip-path="url(#p21abbaa41b)" d="M 138.893758 307.584 
L 138.893758 41.472 
" style="fill:none;stroke:#b0b0b0;stroke-linecap:square;stroke-width:0.8;"/>
     </g>
     <g id="line2d_4">
      <g>
       <use style="stroke:#000000;stroke-width:0.8;" x="138.893758" xlink:href="#m0d9ad30285" y="307.584"/>
      </g>
     </g>
     <g id="text_2">
      <!-- $\mathdefault{2}$ -->
      <g transform="translate(136.403091 321.502498)scale(0.1 -0.1)">
       <defs>
        <path d="M 2669 989 
L 2554 989 
C 2490 536 2438 459 2413 420 
C 2381 369 1920 369 1830 369 
L 602 369 
C 832 619 1280 1072 1824 1597 
C 2214 1967 2669 2402 2669 3035 
C 2669 3790 2067 4224 1395 4224 
C 691 4224 262 3604 262 3030 
C 262 2780 448 2748 525 2748 
C 589 2748 781 2787 781 3010 
C 781 3207 614 3264 525 3264 
C 486 3264 448 3258 422 3245 
C 544 3790 915 4058 1306 4058 
C 1862 4058 2227 3617 2227 3035 
C 2227 2479 1901 2000 1536 1584 
L 262 146 
L 262 0 
L 2515 0 
L 2669 989 
z
" id="CMR17-32" transform="scale(0.015625)"/>
       </defs>
       <use transform="scale(0.996264)" xlink:href="#CMR17-32"/>
      </g>
     </g>
    </g>
    <g id="xtick_3">
     <g id="line2d_5">
      <path clip-path="url(#p21abbaa41b)" d="M 203.95479 307.584 
L 203.95479 41.472 
" style="fill:none;stroke:#b0b0b0;stroke-linecap:square;stroke-width:0.8;"/>
     </g>
     <g id="line2d_6">
      <g>
       <use style="stroke:#000000;stroke-width:0.8;" x="203.95479" xlink:href="#m0d9ad30285" y="307.584"/>
      </g>
     </g>
     <g id="text_3">
      <!-- $\mathdefault{4}$ -->
      <g transform="translate(201.464122 321.502498)scale(0.1 -0.1)">
       <defs>
        <path d="M 2150 4122 
C 2150 4256 2144 4256 2029 4256 
L 128 1254 
L 128 1088 
L 1779 1088 
L 1779 457 
C 1779 224 1766 160 1318 160 
L 1197 160 
L 1197 0 
C 1402 0 1747 0 1965 0 
C 2182 0 2528 0 2733 0 
L 2733 160 
L 2611 160 
C 2163 160 2150 224 2150 457 
L 2150 1088 
L 2803 1088 
L 2803 1254 
L 2150 1254 
L 2150 4122 
z
M 1798 3703 
L 1798 1254 
L 256 1254 
L 1798 3703 
z
" id="CMR17-34" transform="scale(0.015625)"/>
       </defs>
       <use transform="scale(0.996264)" xlink:href="#CMR17-34"/>
      </g>
     </g>
    </g>
    <g id="xtick_4">
     <g id="line2d_7">
      <path clip-path="url(#p21abbaa41b)" d="M 269.015821 307.584 
L 269.015821 41.472 
" style="fill:none;stroke:#b0b0b0;stroke-linecap:square;stroke-width:0.8;"/>
     </g>
     <g id="line2d_8">
      <g>
       <use style="stroke:#000000;stroke-width:0.8;" x="269.015821" xlink:href="#m0d9ad30285" y="307.584"/>
      </g>
     </g>
     <g id="text_4">
      <!-- $\mathdefault{6}$ -->
      <g transform="translate(266.525153 321.502498)scale(0.1 -0.1)">
       <defs>
        <path d="M 678 2176 
C 678 3690 1395 4032 1811 4032 
C 1946 4032 2272 4009 2400 3776 
C 2298 3776 2106 3776 2106 3553 
C 2106 3381 2246 3323 2336 3323 
C 2394 3323 2566 3348 2566 3560 
C 2566 3954 2246 4179 1805 4179 
C 1043 4179 243 3390 243 1984 
C 243 253 966 -128 1478 -128 
C 2099 -128 2688 427 2688 1283 
C 2688 2081 2170 2662 1517 2662 
C 1126 2662 838 2407 678 1960 
L 678 2176 
z
M 1478 25 
C 691 25 691 1200 691 1436 
C 691 1896 909 2560 1504 2560 
C 1613 2560 1926 2560 2138 2120 
C 2253 1870 2253 1609 2253 1289 
C 2253 944 2253 690 2118 434 
C 1978 171 1773 25 1478 25 
z
" id="CMR17-36" transform="scale(0.015625)"/>
       </defs>
       <use transform="scale(0.996264)" xlink:href="#CMR17-36"/>
      </g>
     </g>
    </g>
    <g id="xtick_5">
     <g id="line2d_9">
      <path clip-path="url(#p21abbaa41b)" d="M 334.076852 307.584 
L 334.076852 41.472 
" style="fill:none;stroke:#b0b0b0;stroke-linecap:square;stroke-width:0.8;"/>
     </g>
     <g id="line2d_10">
      <g>
       <use style="stroke:#000000;stroke-width:0.8;" x="334.076852" xlink:href="#m0d9ad30285" y="307.584"/>
      </g>
     </g>
     <g id="text_5">
      <!-- $\mathdefault{8}$ -->
      <g transform="translate(331.586184 321.502498)scale(0.1 -0.1)">
       <defs>
        <path d="M 1741 2264 
C 2144 2467 2554 2773 2554 3263 
C 2554 3841 1990 4179 1472 4179 
C 890 4179 378 3759 378 3180 
C 378 3021 416 2747 666 2505 
C 730 2442 998 2251 1171 2130 
C 883 1983 211 1634 211 934 
C 211 279 838 -128 1459 -128 
C 2144 -128 2720 362 2720 1010 
C 2720 1590 2330 1857 2074 2029 
L 1741 2264 
z
M 902 2822 
C 851 2854 595 3051 595 3351 
C 595 3739 998 4032 1459 4032 
C 1965 4032 2336 3676 2336 3262 
C 2336 2669 1670 2331 1638 2331 
C 1632 2331 1626 2331 1574 2370 
L 902 2822 
z
M 2080 1519 
C 2176 1449 2483 1240 2483 851 
C 2483 381 2010 25 1472 25 
C 890 25 448 438 448 940 
C 448 1443 838 1862 1280 2060 
L 2080 1519 
z
" id="CMR17-38" transform="scale(0.015625)"/>
       </defs>
       <use transform="scale(0.996264)" xlink:href="#CMR17-38"/>
      </g>
     </g>
    </g>
    <g id="xtick_6">
     <g id="line2d_11">
      <path clip-path="url(#p21abbaa41b)" d="M 399.137883 307.584 
L 399.137883 41.472 
" style="fill:none;stroke:#b0b0b0;stroke-linecap:square;stroke-width:0.8;"/>
     </g>
     <g id="line2d_12">
      <g>
       <use style="stroke:#000000;stroke-width:0.8;" x="399.137883" xlink:href="#m0d9ad30285" y="307.584"/>
      </g>
     </g>
     <g id="text_6">
      <!-- $\mathdefault{10}$ -->
      <g transform="translate(394.156548 321.502498)scale(0.1 -0.1)">
       <defs>
        <path d="M 1702 4058 
C 1702 4192 1696 4192 1606 4192 
C 1357 3916 979 3827 621 3827 
C 602 3827 570 3827 563 3808 
C 557 3795 557 3782 557 3648 
C 755 3648 1088 3686 1344 3839 
L 1344 461 
C 1344 236 1331 160 781 160 
L 589 160 
L 589 0 
C 896 0 1216 0 1523 0 
C 1830 0 2150 0 2458 0 
L 2458 160 
L 2266 160 
C 1715 160 1702 230 1702 458 
L 1702 4058 
z
" id="CMR17-31" transform="scale(0.015625)"/>
       </defs>
       <use transform="scale(0.996264)" xlink:href="#CMR17-31"/>
       <use transform="translate(45.690477 0)scale(0.996264)" xlink:href="#CMR17-30"/>
      </g>
     </g>
    </g>
    <g id="text_7">
     <!-- t -->
     <g transform="translate(234.222814 334.358175)scale(0.1 -0.1)">
      <defs>
       <path d="M 966 2560 
L 1862 2560 
L 1862 2725 
L 966 2725 
L 966 3904 
L 851 3904 
C 838 3245 614 2668 70 2668 
L 70 2560 
L 627 2560 
L 627 771 
C 627 650 627 -64 1370 -64 
C 1747 -64 1965 306 1965 777 
L 1965 1140 
L 1850 1140 
L 1850 783 
C 1850 344 1677 51 1408 51 
C 1222 51 966 178 966 758 
L 966 2560 
z
" id="CMR17-74" transform="scale(0.015625)"/>
      </defs>
      <use transform="scale(0.996264)" xlink:href="#CMR17-74"/>
     </g>
    </g>
   </g>
   <g id="matplotlib.axis_2">
    <g id="ytick_1">
     <g id="line2d_13">
      <path clip-path="url(#p21abbaa41b)" d="M 57.6 295.357554 
L 414.72 295.357554 
" style="fill:none;stroke:#b0b0b0;stroke-linecap:square;stroke-width:0.8;"/>
     </g>
     <g id="line2d_14">
      <defs>
       <path d="M 0 0 
L -3.5 0 
" id="m4a1d20f352" style="stroke:#000000;stroke-width:0.8;"/>
      </defs>
      <g>
       <use style="stroke:#000000;stroke-width:0.8;" x="57.6" xlink:href="#m4a1d20f352" y="295.357554"/>
      </g>
     </g>
     <g id="text_8">
      <!-- $\mathdefault{−4}$ -->
      <g transform="translate(37.869921 298.816804)scale(0.1 -0.1)">
       <defs>
        <path d="M 4218 1472 
C 4326 1472 4442 1472 4442 1600 
C 4442 1728 4326 1728 4218 1728 
L 755 1728 
C 646 1728 531 1728 531 1600 
C 531 1472 646 1472 755 1472 
L 4218 1472 
z
" id="CMSY10-0" transform="scale(0.015625)"/>
       </defs>
       <use transform="scale(0.996264)" xlink:href="#CMSY10-0"/>
       <use transform="translate(77.487468 0)scale(0.996264)" xlink:href="#CMR17-34"/>
      </g>
     </g>
    </g>
    <g id="ytick_2">
     <g id="line2d_15">
      <path clip-path="url(#p21abbaa41b)" d="M 57.6 262.198543 
L 414.72 262.198543 
" style="fill:none;stroke:#b0b0b0;stroke-linecap:square;stroke-width:0.8;"/>
     </g>
     <g id="line2d_16">
      <g>
       <use style="stroke:#000000;stroke-width:0.8;" x="57.6" xlink:href="#m4a1d20f352" y="262.198543"/>
      </g>
     </g>
     <g id="text_9">
      <!-- $\mathdefault{−3}$ -->
      <g transform="translate(37.869921 265.657792)scale(0.1 -0.1)">
       <defs>
        <path d="M 1414 2157 
C 1984 2157 2234 1662 2234 1090 
C 2234 320 1824 25 1453 25 
C 1114 25 563 194 390 693 
C 422 680 454 680 486 680 
C 640 680 755 782 755 948 
C 755 1133 614 1216 486 1216 
C 378 1216 211 1165 211 926 
C 211 335 787 -128 1466 -128 
C 2176 -128 2720 430 2720 1085 
C 2720 1707 2208 2157 1600 2227 
C 2086 2328 2554 2756 2554 3329 
C 2554 3820 2048 4179 1472 4179 
C 890 4179 378 3829 378 3329 
C 378 3110 544 3072 627 3072 
C 762 3072 877 3155 877 3321 
C 877 3486 762 3569 627 3569 
C 602 3569 570 3569 544 3557 
C 730 3959 1235 4032 1459 4032 
C 1683 4032 2106 3925 2106 3320 
C 2106 3143 2080 2828 1862 2550 
C 1670 2304 1453 2304 1242 2284 
C 1210 2284 1062 2269 1037 2269 
C 992 2263 966 2257 966 2208 
C 966 2163 973 2157 1101 2157 
L 1414 2157 
z
" id="CMR17-33" transform="scale(0.015625)"/>
       </defs>
       <use transform="scale(0.996264)" xlink:href="#CMSY10-0"/>
       <use transform="translate(77.487468 0)scale(0.996264)" xlink:href="#CMR17-33"/>
      </g>
     </g>
    </g>
    <g id="ytick_3">
     <g id="line2d_17">
      <path clip-path="url(#p21abbaa41b)" d="M 57.6 229.039531 
L 414.72 229.039531 
" style="fill:none;stroke:#b0b0b0;stroke-linecap:square;stroke-width:0.8;"/>
     </g>
     <g id="line2d_18">
      <g>
       <use style="stroke:#000000;stroke-width:0.8;" x="57.6" xlink:href="#m4a1d20f352" y="229.039531"/>
      </g>
     </g>
     <g id="text_10">
      <!-- $\mathdefault{−2}$ -->
      <g transform="translate(37.869921 232.49878)scale(0.1 -0.1)">
       <use transform="scale(0.996264)" xlink:href="#CMSY10-0"/>
       <use transform="translate(77.487468 0)scale(0.996264)" xlink:href="#CMR17-32"/>
      </g>
     </g>
    </g>
    <g id="ytick_4">
     <g id="line2d_19">
      <path clip-path="url(#p21abbaa41b)" d="M 57.6 195.880519 
L 414.72 195.880519 
" style="fill:none;stroke:#b0b0b0;stroke-linecap:square;stroke-width:0.8;"/>
     </g>
     <g id="line2d_20">
      <g>
       <use style="stroke:#000000;stroke-width:0.8;" x="57.6" xlink:href="#m4a1d20f352" y="195.880519"/>
      </g>
     </g>
     <g id="text_11">
      <!-- $\mathdefault{−1}$ -->
      <g transform="translate(37.869921 199.339768)scale(0.1 -0.1)">
       <use transform="scale(0.996264)" xlink:href="#CMSY10-0"/>
       <use transform="translate(77.487468 0)scale(0.996264)" xlink:href="#CMR17-31"/>
      </g>
     </g>
    </g>
    <g id="ytick_5">
     <g id="line2d_21">
      <path clip-path="url(#p21abbaa41b)" d="M 57.6 162.721507 
L 414.72 162.721507 
" style="fill:none;stroke:#b0b0b0;stroke-linecap:square;stroke-width:0.8;"/>
     </g>
     <g id="line2d_22">
      <g>
       <use style="stroke:#000000;stroke-width:0.8;" x="57.6" xlink:href="#m4a1d20f352" y="162.721507"/>
      </g>
     </g>
     <g id="text_12">
      <!-- $\mathdefault{0}$ -->
      <g transform="translate(45.618665 166.180757)scale(0.1 -0.1)">
       <use transform="scale(0.996264)" xlink:href="#CMR17-30"/>
      </g>
     </g>
    </g>
    <g id="ytick_6">
     <g id="line2d_23">
      <path clip-path="url(#p21abbaa41b)" d="M 57.6 129.562496 
L 414.72 129.562496 
" style="fill:none;stroke:#b0b0b0;stroke-linecap:square;stroke-width:0.8;"/>
     </g>
     <g id="line2d_24">
      <g>
       <use style="stroke:#000000;stroke-width:0.8;" x="57.6" xlink:href="#m4a1d20f352" y="129.562496"/>
      </g>
     </g>
     <g id="text_13">
      <!-- $\mathdefault{1}$ -->
      <g transform="translate(45.618665 133.021745)scale(0.1 -0.1)">
       <use transform="scale(0.996264)" xlink:href="#CMR17-31"/>
      </g>
     </g>
    </g>
    <g id="ytick_7">
     <g id="line2d_25">
      <path clip-path="url(#p21abbaa41b)" d="M 57.6 96.403484 
L 414.72 96.403484 
" style="fill:none;stroke:#b0b0b0;stroke-linecap:square;stroke-width:0.8;"/>
     </g>
     <g id="line2d_26">
      <g>
       <use style="stroke:#000000;stroke-width:0.8;" x="57.6" xlink:href="#m4a1d20f352" y="96.403484"/>
      </g>
     </g>
     <g id="text_14">
      <!-- $\mathdefault{2}$ -->
      <g transform="translate(45.618665 99.862733)scale(0.1 -0.1)">
       <use transform="scale(0.996264)" xlink:href="#CMR17-32"/>
      </g>
     </g>
    </g>
    <g id="ytick_8">
     <g id="line2d_27">
      <path clip-path="url(#p21abbaa41b)" d="M 57.6 63.244472 
L 414.72 63.244472 
" style="fill:none;stroke:#b0b0b0;stroke-linecap:square;stroke-width:0.8;"/>
     </g>
     <g id="line2d_28">
      <g>
       <use style="stroke:#000000;stroke-width:0.8;" x="57.6" xlink:href="#m4a1d20f352" y="63.244472"/>
      </g>
     </g>
     <g id="text_15">
      <!-- $\mathdefault{3}$ -->
      <g transform="translate(45.618665 66.703721)scale(0.1 -0.1)">
       <use transform="scale(0.996264)" xlink:href="#CMR17-33"/>
      </g>
     </g>
    </g>
   </g>
   <g id="line2d_29">
    <path clip-path="url(#p21abbaa41b)" d="M 73.832727 61.865301 
L 77.736389 61.983996 
L 81.640051 62.34382 
L 84.893103 62.840613 
L 88.146154 63.537318 
L 91.399206 64.463198 
L 94.652257 65.657865 
L 97.254698 66.84124 
L 99.85714 68.261795 
L 102.459581 69.958269 
L 105.062022 71.976315 
L 107.013853 73.732583 
L 108.965684 75.724864 
L 110.917515 77.981078 
L 112.869346 80.531596 
L 114.821177 83.408956 
L 116.773008 86.647314 
L 118.724839 90.281538 
L 120.67667 94.345792 
L 122.628501 98.871526 
L 124.580332 103.884727 
L 126.532163 109.402422 
L 129.134604 117.548391 
L 131.737045 126.554567 
L 134.990097 138.840386 
L 139.544369 157.194605 
L 144.098641 175.429626 
L 146.701082 185.139539 
L 149.303523 194.005462 
L 151.255354 199.992106 
L 153.207185 205.357016 
L 155.159016 210.074878 
L 157.110847 214.137097 
L 159.062678 217.547196 
L 160.363899 219.463691 
L 161.665119 221.099802 
L 162.96634 222.460433 
L 164.267561 223.550564 
L 165.568781 224.374994 
L 166.870002 224.938142 
L 168.171222 225.243914 
L 169.472443 225.295607 
L 170.773664 225.095877 
L 172.074884 224.64674 
L 173.376105 223.949613 
L 174.677326 223.005408 
L 175.978546 221.814654 
L 177.279767 220.377667 
L 178.580987 218.694763 
L 180.532818 215.710697 
L 182.484649 212.179323 
L 184.43648 208.110694 
L 186.388311 203.523272 
L 188.340142 198.446981 
L 190.942583 190.996803 
L 194.195635 180.80869 
L 200.051128 161.32334 
L 203.95479 148.746949 
L 206.557231 141.051586 
L 209.159672 134.143389 
L 211.111503 129.566929 
L 213.063334 125.555955 
L 215.015165 122.137231 
L 216.966996 119.325835 
L 218.268216 117.792327 
L 219.569437 116.531829 
L 220.870658 115.543606 
L 222.171878 114.826239 
L 223.473099 114.377826 
L 224.77432 114.196123 
L 226.07554 114.27864 
L 227.376761 114.622674 
L 228.677981 115.225303 
L 229.979202 116.083327 
L 231.280423 117.193162 
L 232.581643 118.550695 
L 233.882864 120.151103 
L 235.834695 122.994222 
L 237.786526 126.346044 
L 239.738357 130.174237 
L 241.690188 134.436918 
L 244.292629 140.703382 
L 247.54568 149.245806 
L 257.955445 177.337759 
L 260.557887 183.420474 
L 262.509718 187.509319 
L 264.461549 191.135444 
L 266.413379 194.260657 
L 268.36521 196.857793 
L 269.666431 198.286761 
L 270.967652 199.469753 
L 272.268872 200.404851 
L 273.570093 201.091284 
L 274.871314 201.529269 
L 276.172534 201.719892 
L 277.473755 201.665025 
L 278.774975 201.36728 
L 280.076196 200.830001 
L 281.377417 200.057297 
L 282.678637 199.054101 
L 283.979858 197.826262 
L 285.931689 195.578659 
L 287.88352 192.869598 
L 289.835351 189.734186 
L 291.787182 186.215297 
L 294.389623 181.016668 
L 297.642674 173.911485 
L 308.052439 150.535434 
L 310.654881 145.480287 
L 312.606712 142.089535 
L 314.558543 139.093854 
L 316.510373 136.529405 
L 318.462204 134.423293 
L 319.763425 133.283472 
L 321.064646 132.359629 
L 322.365866 131.654184 
L 323.667087 131.168342 
L 324.968308 130.902192 
L 326.269528 130.854771 
L 327.570749 131.024121 
L 328.871969 131.407308 
L 330.17319 132.000427 
L 331.474411 132.798583 
L 332.775631 133.795852 
L 334.727462 135.649471 
L 336.679293 137.906603 
L 338.631124 140.532603 
L 340.582955 143.486346 
L 343.185396 147.8512 
L 346.438448 153.806874 
L 356.197602 172.155437 
L 358.800044 176.446057 
L 360.751875 179.337705 
L 362.703706 181.902247 
L 364.655537 184.105269 
L 366.607367 185.919928 
L 368.559198 187.32662 
L 369.860419 188.031166 
L 371.16164 188.546327 
L 372.46286 188.871043 
L 373.764081 189.005378 
L 375.065302 188.950473 
L 376.366522 188.708518 
L 377.667743 188.282734 
L 378.968963 187.67737 
L 380.920794 186.444435 
L 382.872625 184.84177 
L 384.824456 182.896958 
L 386.776287 180.643015 
L 389.378728 177.223993 
L 391.98117 173.429225 
L 395.884831 167.295126 
L 398.487273 163.100607 
L 398.487273 163.100607 
" style="fill:none;stroke:#0000ff;stroke-linecap:square;stroke-width:1.5;"/>
   </g>
   <g id="line2d_30">
    <path clip-path="url(#p21abbaa41b)" d="M 73.832727 162.721507 
L 82.290661 167.125478 
L 85.543713 169.051537 
L 88.796764 171.24106 
L 91.399206 173.248926 
L 94.001647 175.54604 
L 96.604088 178.196225 
L 98.555919 180.458312 
L 100.50775 182.992396 
L 102.459581 185.834524 
L 104.411412 189.02336 
L 106.363243 192.599802 
L 108.315074 196.606199 
L 110.266905 201.085008 
L 112.218736 206.076648 
L 114.170567 211.616266 
L 116.122398 217.729083 
L 118.724839 226.783046 
L 121.32728 236.816226 
L 124.580332 250.447445 
L 130.435824 275.357558 
L 132.387655 282.573455 
L 133.688876 286.727555 
L 134.990097 290.205779 
L 136.291317 292.887777 
L 136.941927 293.896869 
L 137.592538 294.669655 
L 138.243148 295.196953 
L 138.893758 295.471481 
L 139.544369 295.488 
L 140.194979 295.243419 
L 140.845589 294.736852 
L 141.4962 293.96963 
L 142.14681 292.945259 
L 143.448031 290.149441 
L 144.749251 286.416747 
L 146.050472 281.839911 
L 147.351692 276.529747 
L 149.303523 267.455013 
L 151.905965 253.921124 
L 157.110847 224.967965 
L 161.665119 200.159953 
L 165.568781 180.048801 
L 170.123053 157.726178 
L 179.231598 114.514054 
L 184.43648 90.52222 
L 187.038921 79.401693 
L 188.990752 71.838068 
L 190.942583 65.234418 
L 192.243804 61.505709 
L 193.545025 58.41254 
L 194.846245 56.030466 
L 195.496856 55.126699 
L 196.147466 54.423629 
L 196.798076 53.926802 
L 197.448686 53.640567 
L 198.099297 53.568 
L 198.749907 53.710846 
L 199.400517 54.069484 
L 200.051128 54.642923 
L 200.701738 55.428816 
L 201.352348 56.423505 
L 202.653569 59.01849 
L 203.95479 62.375352 
L 205.25601 66.426692 
L 206.557231 71.094492 
L 208.509062 79.067496 
L 210.460893 87.95074 
L 213.713944 104.064037 
L 220.870658 141.408684 
L 226.72615 171.325394 
L 231.280423 193.582051 
L 235.184085 211.569132 
L 237.786526 222.657117 
L 239.738357 230.276385 
L 241.690188 237.109458 
L 243.642019 242.965827 
L 244.943239 246.231156 
L 246.24446 248.921086 
L 247.54568 250.986591 
L 248.846901 252.387001 
L 249.497511 252.827973 
L 250.148122 253.092409 
L 250.798732 253.178564 
L 251.449342 253.085561 
L 252.099953 252.813414 
L 252.750563 252.363029 
L 253.401173 251.736196 
L 254.702394 249.964592 
L 256.003615 247.529343 
L 257.304835 244.472551 
L 258.606056 240.845414 
L 260.557887 234.462646 
L 262.509718 227.135438 
L 265.112159 216.255877 
L 268.36521 201.496371 
L 276.172534 164.409102 
L 280.726806 143.398778 
L 283.979858 129.272537 
L 286.582299 118.791507 
L 289.18474 109.315466 
L 291.136571 103.050733 
L 293.088402 97.66323 
L 294.389623 94.628451 
L 295.690844 92.085207 
L 296.992064 90.068668 
L 298.293285 88.60839 
L 298.943895 88.094169 
L 299.594505 87.726794 
L 300.245116 87.507748 
L 300.895726 87.437937 
L 301.546336 87.517669 
L 302.196947 87.74665 
L 302.847557 88.12398 
L 303.498167 88.648159 
L 304.799388 90.128184 
L 306.100608 92.163537 
L 307.401829 94.723151 
L 308.70305 97.769428 
L 310.00427 101.259809 
L 311.956101 107.227214 
L 313.907932 113.929733 
L 316.510373 123.736829 
L 319.763425 136.91297 
L 330.8238 182.681565 
L 334.076852 194.792121 
L 336.679293 203.519381 
L 338.631124 209.342735 
L 340.582955 214.425928 
L 341.884176 217.350058 
L 343.185396 219.867008 
L 344.486617 221.94927 
L 345.787837 223.573022 
L 347.089058 224.719126 
L 348.390279 225.373991 
L 349.040889 225.514649 
L 349.691499 225.530246 
L 350.34211 225.420904 
L 350.99272 225.187172 
L 352.293941 224.35085 
L 353.595161 223.034009 
L 354.896382 221.255602 
L 356.197602 219.040128 
L 357.498823 216.416772 
L 359.450654 211.789649 
L 361.402485 206.440558 
L 363.354316 200.496678 
L 365.956757 191.864887 
L 369.860419 177.974654 
L 377.667743 149.812322 
L 380.920794 139.022407 
L 383.523236 131.200321 
L 385.475066 125.94637 
L 387.426897 121.317713 
L 389.378728 117.400986 
L 390.679949 115.224832 
L 391.98117 113.421029 
L 393.28239 112.007051 
L 394.583611 110.996673 
L 395.884831 110.399447 
L 397.186052 110.2203 
L 398.487273 110.459273 
L 398.487273 110.459273 
" style="fill:none;stroke:#008000;stroke-linecap:square;stroke-width:1.5;"/>
   </g>
   <g id="patch_3">
    <path d="M 57.6 307.584 
L 57.6 41.472 
" style="fill:none;stroke:#000000;stroke-linecap:square;stroke-linejoin:miter;stroke-width:0.8;"/>
   </g>
   <g id="patch_4">
    <path d="M 414.72 307.584 
L 414.72 41.472 
" style="fill:none;stroke:#000000;stroke-linecap:square;stroke-linejoin:miter;stroke-width:0.8;"/>
   </g>
   <g id="patch_5">
    <path d="M 57.6 307.584 
L 414.72 307.584 
" style="fill:none;stroke:#000000;stroke-linecap:square;stroke-linejoin:miter;stroke-width:0.8;"/>
   </g>
   <g id="patch_6">
    <path d="M 57.6 41.472 
L 414.72 41.472 
" style="fill:none;stroke:#000000;stroke-linecap:square;stroke-linejoin:miter;stroke-width:0.8;"/>
   </g>
   <g id="legend_1">
    <g id="patch_7">
     <path d="M 357.814915 79.39728 
L 407.72 79.39728 
Q 409.72 79.39728 409.72 77.39728 
L 409.72 48.472 
Q 409.72 46.472 407.72 46.472 
L 357.814915 46.472 
Q 355.814915 46.472 355.814915 48.472 
L 355.814915 77.39728 
Q 355.814915 79.39728 357.814915 79.39728 
z
" style="fill:#ffffff;opacity:0.8;stroke:#cccccc;stroke-linejoin:miter;"/>
    </g>
    <g id="line2d_31">
     <path d="M 359.814915 54.44398 
L 379.814915 54.44398 
" style="fill:none;stroke:#0000ff;stroke-linecap:square;stroke-width:1.5;"/>
    </g>
    <g id="line2d_32"/>
    <g id="text_16">
     <!-- $\theta(t)$ -->
     <g transform="translate(387.814915 57.94398)scale(0.1 -0.1)">
      <defs>
       <path d="M 2835 3200 
C 2835 3850 2630 4480 2106 4480 
C 1210 4480 256 2615 256 1216 
C 256 923 320 -64 992 -64 
C 1862 -64 2835 1756 2835 3200 
z
M 896 2304 
C 992 2679 1126 3214 1382 3665 
C 1594 4047 1818 4352 2099 4352 
C 2310 4352 2451 4174 2451 3564 
C 2451 3334 2432 3017 2246 2304 
L 896 2304 
z
M 2202 2113 
C 2042 1490 1907 1088 1677 687 
C 1491 363 1267 64 998 64 
C 800 64 640 217 640 846 
C 640 1260 742 1693 845 2113 
L 2202 2113 
z
" id="CMMI12-12" transform="scale(0.015625)"/>
       <path d="M 1958 -1561 
C 1958 -1555 1958 -1542 1939 -1523 
C 1645 -1224 858 -407 858 1581 
C 858 3569 1632 4379 1946 4697 
C 1946 4704 1958 4717 1958 4736 
C 1958 4755 1939 4768 1914 4768 
C 1843 4768 1299 4296 986 3594 
C 666 2887 576 2199 576 1588 
C 576 1128 621 351 1005 -471 
C 1312 -1135 1837 -1600 1914 -1600 
C 1946 -1600 1958 -1587 1958 -1561 
z
" id="CMR17-28" transform="scale(0.015625)"/>
       <path d="M 1286 2566 
L 1875 2566 
C 1997 2566 2061 2566 2061 2681 
C 2061 2752 2022 2752 1894 2752 
L 1331 2752 
L 1568 3692 
C 1594 3781 1594 3794 1594 3840 
C 1594 3943 1510 4000 1427 4000 
C 1376 4000 1229 3981 1178 3775 
L 928 2752 
L 326 2752 
C 198 2752 141 2752 141 2630 
C 141 2566 186 2566 307 2566 
L 877 2566 
L 454 881 
C 403 658 384 594 384 511 
C 384 211 595 -64 954 -64 
C 1600 -64 1946 868 1946 912 
C 1946 951 1920 970 1882 970 
C 1869 970 1843 970 1830 944 
C 1824 938 1818 931 1773 829 
C 1638 511 1344 64 973 64 
C 781 64 768 224 768 364 
C 768 370 768 492 787 568 
L 1286 2566 
z
" id="CMMI12-74" transform="scale(0.015625)"/>
       <path d="M 1683 1581 
C 1683 2040 1638 2817 1254 3639 
C 947 4303 422 4768 346 4768 
C 326 4768 301 4761 301 4729 
C 301 4717 307 4710 314 4697 
C 621 4378 1402 3568 1402 1584 
C 1402 -407 627 -1217 314 -1537 
C 307 -1549 301 -1556 301 -1568 
C 301 -1600 326 -1600 346 -1600 
C 416 -1600 960 -1128 1274 -426 
C 1594 281 1683 969 1683 1581 
z
" id="CMR17-29" transform="scale(0.015625)"/>
      </defs>
      <use transform="scale(0.996264)" xlink:href="#CMMI12-12"/>
      <use transform="translate(48.169508 0)scale(0.996264)" xlink:href="#CMR17-28"/>
      <use transform="translate(83.450276 0)scale(0.996264)" xlink:href="#CMMI12-74"/>
      <use transform="translate(118.676606 0)scale(0.996264)" xlink:href="#CMR17-29"/>
     </g>
    </g>
    <g id="line2d_33">
     <path d="M 359.814915 69.40662 
L 379.814915 69.40662 
" style="fill:none;stroke:#008000;stroke-linecap:square;stroke-width:1.5;"/>
    </g>
    <g id="line2d_34"/>
    <g id="text_17">
     <!-- $\omega(t)$ -->
     <g transform="translate(387.814915 72.90662)scale(0.1 -0.1)">
      <defs>
       <path d="M 3802 2395 
C 3802 2580 3750 2816 3526 2816 
C 3398 2816 3251 2657 3251 2529 
C 3251 2472 3277 2434 3328 2376 
C 3424 2268 3546 2096 3546 1797 
C 3546 1567 3405 1204 3302 1007 
C 3123 656 2829 357 2496 357 
C 2093 357 1939 615 1869 975 
C 1939 1143 2086 1560 2086 1728 
C 2086 1798 2061 1856 1978 1856 
C 1933 1856 1882 1831 1850 1779 
C 1760 1638 1677 1129 1683 994 
C 1562 756 1216 357 806 357 
C 378 357 262 733 262 1096 
C 262 1758 678 2338 794 2497 
C 858 2593 902 2657 902 2669 
C 902 2714 877 2784 819 2784 
C 717 2784 685 2701 634 2625 
C 307 2121 77 1414 77 803 
C 77 408 224 -64 704 -64 
C 1235 -64 1568 391 1702 634 
C 1754 275 1946 -64 2413 -64 
C 2899 -64 3206 363 3437 879 
C 3603 1249 3802 2045 3802 2395 
z
" id="CMMI12-21" transform="scale(0.015625)"/>
      </defs>
      <use transform="scale(0.996264)" xlink:href="#CMMI12-21"/>
      <use transform="translate(64.318346 0)scale(0.996264)" xlink:href="#CMR17-28"/>
      <use transform="translate(99.599114 0)scale(0.996264)" xlink:href="#CMMI12-74"/>
      <use transform="translate(134.825444 0)scale(0.996264)" xlink:href="#CMR17-29"/>
     </g>
    </g>
   </g>
  </g>
 </g>
 <defs>
  <clipPath id="p21abbaa41b">
   <rect height="266.112" width="357.12" x="57.6" y="41.472"/>
  </clipPath>
 </defs>
</svg>
